<svg xmlns="http://www.w3.org/2000/svg" version="1.1" xmlns:xlink="http://www.w3.org/1999/xlink" xmlns:svgjs="http://svgjs.com/svgjs" width="3000" height="3000" preserveAspectRatio="none" viewBox="0 0 3000 3000"><g mask="url(&quot;#SvgjsMask1020&quot;)" fill="none"><rect width="3000" height="3000" x="0" y="0" fill="rgba(0, 0, 0, 1)"></rect><path d="M0 2108.86L10 2238.85L20 2142.73L30 1845.39L40 2171.23L50 2124.93L60 2154.1L70 2083.87L80 2366.91L90 2025.88L100 2110.33L110 1867.58L120 1583.78L130 1483.75L140 1326.41L150 1497.44L160 1265.63L170 1285.09L180 1230.93L190 1263.46L200 1263.81L210 1403.21L220 1568.39L230 1936.61L240 1806.83L250 1503.5L260 1771.6L270 1704.78L280 1698.31L290 1547.6L300 1838.22L310 1936L320 2272.87L330 1914.9L340 2094.5L350 2431.55L360 2112.77L370 2359.22L380 2373.73L390 2494.57L400 2822.12L410 2688.38L420 2546.8L430 2342.13L440 2171.79L450 2525.25L460 2452.66L470 2593.87L480 2300.44L490 2443.61L500 2555.18L510 2670.2L520 2842.72L530 2940.44L540 2699.16L550 2330.15L560 2702.5L570 2355.58L580 2617.96L590 2507.1L600 2184.92L610 1963.39L620 2165.86L630 1941.29L640 1809.55L650 2093.71L660 2055.72L670 1867.19L680 2056.13L690 2026.69L700 2166.27L710 2352.93L720 2593.35L730 2497.32L740 2261.57L750 1897.64L760 1679.16L770 1367.46L780 1179.02L790 1191.48L800 841.04L810 786.19L820 919.96L830 1125.44L840 922.47L850 1090.57L860 1057L870 975.46L880 879.5L890 962.16L900 588.8L910 595.72L920 634.03L930 842.5L940 598.56L950 560.18L960 595.81L970 769.97L980 961.01L990 1135.85L1000 1144.17L1010 1046.25L1020 750.96L1030 746.54L1040 782.13L1050 428.23L1060 235.95L1070 275.77L1080 146.81L1090 6.06L1100 48.93L1110 107.4L1120 94.76L1130 245.96L1140 593L1150 752.92L1160 883.22L1170 1189.19L1180 1323.74L1190 974.8L1200 1143.31L1210 938.48L1220 898.79L1230 1108.53L1240 1450.99L1250 1209.13L1260 974.68L1270 836.92L1280 1166.68L1290 935.45L1300 643.15L1310 419.62L1320 383.92L1330 218.09L1340 584.8L1350 655.86L1360 571.89L1370 832.08L1380 1134.33L1390 1260.25L1400 1426.37L1410 1499.73L1420 1308.49L1430 982.17L1440 908.34L1450 1204.52L1460 1168.37L1470 1152.9L1480 1470.4L1490 1291.25L1500 1050.19L1510 927.05L1520 861.18L1530 858.56L1540 1181.57L1550 1362.66L1560 1529.4L1570 1302.21L1580 1152.01L1590 1411.85L1600 1573.69L1610 1411.25L1620 1314.38L1630 984.85L1640 1041.84L1650 1156.17L1660 955.07L1670 646.81L1680 350.35L1690 458.08L1700 355.56L1710 572.69L1720 590.89L1730 930.93L1740 629.88L1750 734.3L1760 486.29L1770 152.13L1780 130.03L1790 224.65L1800 170.4L1810 495.8L1820 253.93L1830 592.83L1840 338.65L1850 98.68L1860 125.11L1870 37.29L1880 321L1890 307.1L1900 327.92L1910 118.01L1920 196.98L1930 457.97L1940 159.86L1950 293.76L1960 418.82L1970 105.5L1980 407.2L1990 400.73L2000 199.53L2010 319.63L2020 576.47L2030 890.1L2040 1068.71L2050 1339.66L2060 1669.2L2070 2018L2080 1721.55L2090 2085.48L2100 2105.2L2110 2019.79L2120 1683.01L2130 1859.47L2140 2164.01L2150 2172.09L2160 2374.62L2170 2129.51L2180 2351.77L2190 2054.67L2200 1870.11L2210 1889.68L2220 1580.8L2230 1843.06L2240 2174.01L2250 1974.12L2260 1813.43L2270 1686.94L2280 1391.43L2290 1165.36L2300 887.73L2310 1062.23L2320 1301.74L2330 1041.09L2340 1344.63L2350 1533.53L2360 1757.45L2370 1477.13L2380 1333.37L2390 1511.98L2400 1318.54L2410 1581.31L2420 1252.39L2430 1041.36L2440 1013.61L2450 1005.4L2460 1110.27L2470 1033L2480 1391.4L2490 1344.87L2500 1532.35L2510 1407.77L2520 1578.02L2530 1261.71L2540 1574.57L2550 1909.71L2560 2176.22L2570 1955.42L2580 1813.62L2590 2128.14L2600 1824.68L2610 2130.54L2620 2091.67L2630 2435.21L2640 2527.29L2650 2198.72L2660 1911.32L2670 1956.16L2680 2184.74L2690 2316.86L2700 1991.04L2710 2310.21L2720 2451.06L2730 2667.53L2740 2913.46L2750 2733.13L2760 2633.93L2770 2905.69L2780 2939.72L2790 2661.51L2800 2829.56L2810 2732.16L2820 2640.68L2830 2672.54L2840 2529.48L2850 2513.11L2860 2480.72L2870 2567.82L2880 2631.81L2890 2428.7L2900 2589.89L2910 2756.78L2920 2747.4L2930 2440.62L2940 2298.44L2950 2632.4L2960 2948.54L2970 2656.42L2980 2342.83L2990 2502.4L3000 2660.49" stroke="rgba(218, 13, 13, 0.4)" stroke-width="2"></path><path d="M0 2108.86L10 2238.85L20 2142.73L30 1845.39L40 2171.23L50 2124.93L60 2154.1L70 2083.87L80 2366.91L90 2025.88L100 2110.33L110 1867.58L120 1583.78L130 1483.75L140 1326.41L150 1497.44L160 1265.63L170 1285.09L180 1230.93L190 1263.46L200 1263.81L210 1403.21L220 1568.39L230 1936.61L240 1806.83L250 1503.5L260 1771.6L270 1704.78L280 1698.31L290 1547.6L300 1838.22L310 1936L320 2272.87L330 1914.9L340 2094.5L350 2431.55L360 2112.77L370 2359.22L380 2373.73L390 2494.57L400 2822.12L410 2688.38L420 2546.8L430 2342.13L440 2171.79L450 2525.25L460 2452.66L470 2593.87L480 2300.44L490 2443.61L500 2555.18L510 2670.2L520 2842.72L530 2940.44L540 2699.16L550 2330.15L560 2702.5L570 2355.58L580 2617.96L590 2507.1L600 2184.92L610 1963.39L620 2165.86L630 1941.29L640 1809.55L650 2093.71L660 2055.72L670 1867.19L680 2056.13L690 2026.69L700 2166.27L710 2352.93L720 2593.35L730 2497.32L740 2261.57L750 1897.64L760 1679.16L770 1367.46L780 1179.02L790 1191.48L800 841.04L810 786.19L820 919.96L830 1125.44L840 922.47L850 1090.57L860 1057L870 975.46L880 879.5L890 962.16L900 588.8L910 595.72L920 634.03L930 842.5L940 598.56L950 560.18L960 595.81L970 769.97L980 961.01L990 1135.85L1000 1144.17L1010 1046.25L1020 750.96L1030 746.54L1040 782.13L1050 428.23L1060 235.95L1070 275.77L1080 146.81L1090 6.06L1100 48.93L1110 107.4L1120 94.76L1130 245.96L1140 593L1150 752.92L1160 883.22L1170 1189.19L1180 1323.74L1190 974.8L1200 1143.31L1210 938.48L1220 898.79L1230 1108.53L1240 1450.99L1250 1209.13L1260 974.68L1270 836.92L1280 1166.68L1290 935.45L1300 643.15L1310 419.62L1320 383.92L1330 218.09L1340 584.8L1350 655.86L1360 571.89L1370 832.08L1380 1134.33L1390 1260.25L1400 1426.37L1410 1499.73L1420 1308.49L1430 982.17L1440 908.34L1450 1204.52L1460 1168.37L1470 1152.9L1480 1470.4L1490 1291.25L1500 1050.19L1510 927.05L1520 861.18L1530 858.56L1540 1181.57L1550 1362.66L1560 1529.4L1570 1302.21L1580 1152.01L1590 1411.85L1600 1573.69L1610 1411.25L1620 1314.38L1630 984.85L1640 1041.84L1650 1156.17L1660 955.07L1670 646.81L1680 350.35L1690 458.08L1700 355.56L1710 572.69L1720 590.89L1730 930.93L1740 629.88L1750 734.3L1760 486.29L1770 152.13L1780 130.03L1790 224.65L1800 170.4L1810 495.8L1820 253.93L1830 592.83L1840 338.65L1850 98.68L1860 125.11L1870 37.29L1880 321L1890 307.1L1900 327.92L1910 118.01L1920 196.98L1930 457.97L1940 159.86L1950 293.76L1960 418.82L1970 105.5L1980 407.2L1990 400.73L2000 199.53L2010 319.63L2020 576.47L2030 890.1L2040 1068.71L2050 1339.66L2060 1669.2L2070 2018L2080 1721.55L2090 2085.48L2100 2105.2L2110 2019.79L2120 1683.01L2130 1859.47L2140 2164.01L2150 2172.09L2160 2374.62L2170 2129.51L2180 2351.77L2190 2054.67L2200 1870.11L2210 1889.68L2220 1580.8L2230 1843.06L2240 2174.01L2250 1974.12L2260 1813.43L2270 1686.94L2280 1391.43L2290 1165.36L2300 887.73L2310 1062.23L2320 1301.74L2330 1041.09L2340 1344.63L2350 1533.53L2360 1757.45L2370 1477.13L2380 1333.37L2390 1511.98L2400 1318.54L2410 1581.31L2420 1252.39L2430 1041.36L2440 1013.61L2450 1005.4L2460 1110.27L2470 1033L2480 1391.4L2490 1344.87L2500 1532.35L2510 1407.77L2520 1578.02L2530 1261.71L2540 1574.57L2550 1909.71L2560 2176.22L2570 1955.42L2580 1813.62L2590 2128.14L2600 1824.68L2610 2130.54L2620 2091.67L2630 2435.21L2640 2527.29L2650 2198.72L2660 1911.32L2670 1956.16L2680 2184.74L2690 2316.86L2700 1991.04L2710 2310.21L2720 2451.06L2730 2667.53L2740 2913.46L2750 2733.13L2760 2633.93L2770 2905.69L2780 2939.72L2790 2661.51L2800 2829.56L2810 2732.16L2820 2640.68L2830 2672.54L2840 2529.48L2850 2513.11L2860 2480.72L2870 2567.82L2880 2631.81L2890 2428.7L2900 2589.89L2910 2756.78L2920 2747.4L2930 2440.62L2940 2298.44L2950 2632.4L2960 2948.54L2970 2656.42L2980 2342.83L2990 2502.4L3000 2660.49L3000 3000L0 3000z" fill="url(#SvgjsLinearGradient1021)"></path></g><defs><mask id="SvgjsMask1020"><rect width="3000" height="3000" fill="#ffffff"></rect></mask><linearGradient x1="50%" y1="0%" x2="50%" y2="100%" id="SvgjsLinearGradient1021"><stop stop-opacity="0.65" stop-color="rgba(218, 13, 13, 0.4)" offset="0"></stop><stop stop-opacity="0" stop-color="rgba(251, 184, 184, 0.4)" offset="0.8"></stop></linearGradient></defs></svg>